<svg version="1.1" id="Layer_1" xmlns="http://www.w3.org/2000/svg" xmlns:xlink="http://www.w3.org/1999/xlink" x="0px" y="0px"
	 width="100%" viewBox="0 0 1024 1024" enable-background="new 0 0 1024 1024" xml:space="preserve">
<path fill="#000000" opacity="1.000000" stroke="none" 
	d="
M776.122620,496.100861 
	C785.900269,528.359253 789.792725,561.016968 788.060669,594.181641 
	C784.818115,656.267517 765.603027,712.098022 720.613953,756.800293 
	C693.306091,783.934143 660.114990,801.752747 623.962036,814.378601 
	C596.256409,824.054504 567.725586,829.284058 538.501404,831.348206 
	C495.000885,834.420715 452.337219,829.864746 410.654938,817.206360 
	C367.719940,804.167480 329.359985,783.001648 297.958862,750.485840 
	C275.095123,726.810364 260.033051,698.454773 249.726669,667.359009 
	C238.238663,632.698120 234.923843,596.999084 236.972168,560.858643 
	C239.856277,509.971649 255.034653,463.090424 286.624969,422.489746 
	C310.845490,391.360870 342.479828,370.009125 378.896362,355.393738 
	C392.362823,349.989105 406.220459,345.790161 420.013367,341.373383 
	C421.439972,340.916595 422.841278,340.381104 424.256592,339.888733 
	C440.744080,334.152130 444.154755,328.180939 441.148376,309.114868 
	C438.854950,294.570374 430.575928,282.689240 421.474731,271.460297 
	C416.115051,264.847595 410.072357,258.869293 404.146057,252.780548 
	C402.192078,250.773010 399.705414,248.719513 401.190369,245.470428 
	C402.526062,242.547867 405.491333,242.852356 408.159241,242.675232 
	C432.112762,241.084778 452.833282,249.778290 472.197662,262.774536 
	C474.944305,264.617920 477.585175,266.618927 480.577362,268.763733 
	C483.697845,264.150574 485.331543,259.280151 487.419373,254.654831 
	C492.218750,244.022430 497.038025,233.379639 503.369965,223.566345 
	C510.060760,213.196945 512.902344,213.213806 519.437012,223.564331 
	C527.276489,235.981689 533.644714,249.186783 539.434753,262.671906 
	C540.144409,264.324738 540.570740,266.166351 542.517029,267.708038 
	C547.540283,264.487183 552.550903,261.039093 557.780640,257.963593 
	C576.164307,247.152649 595.924866,241.541397 617.387512,242.667252 
	C619.040710,242.753983 620.772766,242.757797 622.314575,243.266220 
	C626.053467,244.499176 626.984009,247.703186 624.274719,250.586304 
	C621.202332,253.855789 617.734985,256.751526 614.480286,259.852722 
	C602.223999,271.531097 591.097473,284.045319 584.587646,300.014465 
	C582.294495,305.639771 581.183472,311.410553 581.080811,317.512695 
	C580.921509,326.984406 585.158691,333.400543 593.667358,337.147217 
	C603.746216,341.585327 614.451294,344.213745 624.821655,347.809601 
	C670.439758,363.627380 711.708618,385.955872 741.219299,425.823944 
	C756.945312,447.069366 767.987610,470.641541 776.122620,496.100861 
M299.081451,704.415833 
	C315.626892,730.704773 338.275635,750.492615 365.101715,765.608215 
	C406.248413,788.793091 450.775269,799.925415 497.766785,801.826233 
	C548.850891,803.892639 598.083862,796.003235 644.381775,773.533386 
	C673.861938,759.225830 699.657410,740.075928 719.041870,713.203003 
	C746.225464,675.518127 756.964600,632.574646 758.629456,586.912537 
	C759.644775,559.063843 755.369812,531.828552 747.659241,505.101349 
	C741.083008,482.306091 731.155884,461.106934 716.580383,442.336884 
	C694.059082,413.334351 664.254150,394.443878 630.443970,381.217621 
	C615.244629,375.271790 599.467468,371.040253 584.216736,365.274658 
	C566.869141,358.716400 555.326904,346.838013 552.255432,328.197845 
	C550.248718,316.019653 551.658142,303.961029 556.665710,292.480530 
	C557.366211,290.874573 558.590576,289.386383 558.362488,287.053925 
	C555.934692,287.891388 554.404663,289.614838 552.803528,291.174805 
	C547.190308,296.643738 542.008179,302.503723 537.050781,308.572876 
	C533.280334,313.188904 530.934509,312.979858 528.202087,307.731476 
	C524.814270,301.224274 522.201294,294.377380 519.565308,287.536652 
	C517.327393,281.728943 514.789917,276.036621 512.452637,270.454773 
	C509.984192,270.940643 509.837250,272.407257 509.364746,273.596649 
	C506.968536,279.628174 504.580170,285.662872 502.210632,291.704926 
	C499.961060,297.441101 497.988342,303.318024 494.750763,308.593109 
	C492.098083,312.915192 489.539368,313.122864 486.029663,309.448944 
	C483.617554,306.923920 481.559296,304.057861 479.117767,301.564606 
	C474.915741,297.273529 471.217804,292.419861 465.962341,289.110229 
	C468.184906,295.187317 469.563019,301.300690 470.870178,307.460480 
	C475.544769,329.489044 467.306122,358.593719 436.698853,367.565002 
	C418.349609,372.943390 400.002228,378.423401 382.398010,386.151154 
	C330.736755,408.828949 296.384979,446.825989 278.852020,500.528717 
	C267.260925,536.031677 264.673767,572.245483 268.197968,609.059814 
	C271.428009,642.801575 280.934387,674.664368 299.081451,704.415833 
z"/>
<path fill="#000000" opacity="1.000000" stroke="none" 
	d="
M301.470093,665.472351 
	C295.576843,651.781616 290.725098,638.151917 288.376465,623.765503 
	C287.185425,616.470154 286.822083,609.066162 289.973785,602.146973 
	C294.989563,591.135376 303.683441,584.939941 315.864227,584.902161 
	C367.522003,584.741943 419.180542,584.830139 470.838715,584.770325 
	C475.078339,584.765442 478.387085,586.181580 480.276520,590.020569 
	C482.255371,594.041138 479.963501,597.186157 477.452118,599.881226 
	C459.736298,618.892883 441.894379,637.786987 424.154266,656.776062 
	C408.575012,673.452148 392.345734,689.593933 377.746948,707.092407 
	C363.190460,724.540161 334.386932,720.491516 323.648102,705.990601 
	C314.449402,693.569458 307.254120,680.149719 301.470093,665.472351 
M340.772430,640.436584 
	C346.579742,636.409363 348.364075,630.736145 347.751190,623.939636 
	C347.043854,616.095947 341.628357,610.261169 333.894897,609.288086 
	C324.561188,608.113770 317.178375,612.040161 314.514191,619.595459 
	C311.908844,626.983948 313.542908,634.563477 318.762360,639.300415 
	C324.300110,644.326172 331.942078,644.869141 340.772430,640.436584 
M358.551819,691.443604 
	C359.476105,691.070251 360.432556,690.760742 361.319672,690.313538 
	C369.988495,685.943909 372.864227,677.206726 368.897339,667.359253 
	C365.880035,659.869141 357.247467,656.184265 348.365082,658.594971 
	C340.044342,660.853271 335.226013,669.051514 336.910126,678.085266 
	C338.787231,688.154419 345.099609,692.251221 358.551819,691.443604 
M378.879639,612.285278 
	C373.188141,617.476135 372.182373,623.871521 374.244049,630.948792 
	C376.496460,638.680908 383.605408,642.847046 392.200348,641.625916 
	C399.498657,640.589111 404.562653,634.833801 404.879272,627.216370 
	C405.500427,612.271484 393.097076,604.766479 378.879639,612.285278 
z"/>
<path fill="#000000" opacity="1.000000" stroke="none" 
	d="
M644.043274,701.960083 
	C612.319336,668.452759 580.841125,635.203857 549.372314,601.946106 
	C548.230225,600.739014 547.037476,599.541199 546.112732,598.173706 
	C542.145508,592.306824 544.669495,586.356628 551.680969,585.150696 
	C553.795349,584.787048 555.994202,584.831604 558.154419,584.829956 
	C607.115479,584.791321 656.076477,584.746826 705.037537,584.762390 
	C723.907288,584.768433 736.112610,597.124878 736.397461,616.060120 
	C736.621338,630.942261 731.481506,644.505432 726.189819,657.969849 
	C720.954529,671.290955 714.981506,684.316895 707.161926,696.378479 
	C700.884766,706.060974 693.592590,714.487976 681.531555,717.181763 
	C669.418762,719.887085 658.748169,717.971680 650.146362,708.365173 
	C648.259338,706.257751 646.245789,704.263550 644.043274,701.960083 
M695.280640,642.990967 
	C704.527832,642.143311 709.728394,637.200684 710.630127,628.402588 
	C711.484802,620.063721 707.082214,612.645447 699.739868,610.263062 
	C692.593933,607.944580 686.126038,609.408936 681.018311,614.826294 
	C675.630249,620.541016 675.394958,627.458679 678.458801,634.311584 
	C681.466797,641.039734 687.318665,643.336121 695.280640,642.990967 
M686.925598,673.664429 
	C686.232849,665.506470 682.638611,660.582336 676.026855,658.732849 
	C668.513977,656.631226 660.770874,659.183716 656.467834,665.180237 
	C652.300659,670.987305 652.112122,678.886902 655.998169,684.856628 
	C659.757568,690.631836 668.100891,693.340210 675.488525,691.183533 
	C682.826111,689.041382 686.598755,683.554016 686.925598,673.664429 
M627.257202,640.517761 
	C629.630310,641.320801 632.042358,641.770081 634.575012,641.724243 
	C643.523071,641.562073 649.507324,635.399841 649.703369,626.052246 
	C649.918274,615.805359 644.367004,609.443115 634.934875,609.126160 
	C627.049133,608.861206 620.614380,612.913086 618.528198,619.457275 
	C615.758972,628.144226 618.509644,635.254272 627.257202,640.517761 
z"/>
<path fill="#000000" opacity="1.000000" stroke="none" 
	d="
M545.972961,565.941040 
	C544.151001,560.358215 547.549744,557.088501 550.602539,553.823547 
	C561.746033,541.905640 572.982361,530.074646 584.180054,518.207458 
	C605.545532,495.564606 626.999268,473.003845 648.223389,450.229156 
	C655.603027,442.310394 664.055420,437.805145 675.110107,438.709961 
	C683.782776,439.419830 691.219971,442.737762 697.294800,448.866943 
	C708.155640,459.824890 714.908997,473.422638 721.191528,487.231903 
	C728.583313,503.479309 734.670166,520.154663 736.566284,538.098328 
	C738.487976,556.284363 725.744934,571.016174 707.424805,571.063843 
	C657.637024,571.193298 607.848633,571.109253 558.060486,571.119202 
	C553.416870,571.120178 549.044434,570.519531 545.972961,565.941040 
M656.160645,471.769775 
	C655.380493,473.408508 654.278564,474.972351 653.876892,476.699127 
	C652.286987,483.532593 652.788452,489.910797 658.639709,494.848785 
	C664.342285,499.661285 670.822449,500.055756 677.314819,497.334747 
	C683.481995,494.750061 686.715515,489.722656 686.772278,482.833923 
	C686.840759,474.529358 683.665527,468.788696 677.435486,466.193420 
	C670.334473,463.235321 662.522217,465.104614 656.160645,471.769775 
M682.175903,542.312195 
	C683.237366,543.108276 684.234558,544.013733 685.371216,544.681824 
	C691.165466,548.087952 700.226929,547.446350 705.119080,543.346313 
	C710.494690,538.841003 712.407043,530.325134 709.636475,523.230530 
	C706.991760,516.458069 701.336304,512.870300 693.486267,513.222412 
	C687.056458,513.510742 681.734619,516.096069 679.096313,522.204163 
	C676.123291,529.086975 676.602051,535.816772 682.175903,542.312195 
M635.144836,515.307129 
	C634.150391,515.318054 633.143311,515.229980 632.163452,515.355164 
	C622.400146,516.602783 616.790039,524.336182 618.158936,534.613037 
	C619.381348,543.790344 627.055725,549.042664 637.131287,547.597595 
	C645.844971,546.347839 650.882690,538.309387 649.429565,528.618042 
	C648.236084,520.658264 643.317322,516.882202 635.144836,515.307129 
z"/>
<path fill="#000000" opacity="1.000000" stroke="none" 
	d="
M302.163635,488.243500 
	C307.639526,474.896118 313.906952,462.330078 322.916656,451.534302 
	C337.792419,433.709595 360.615112,433.776489 376.322510,450.789673 
	C408.404175,485.538391 440.604279,520.178833 473.543213,554.123108 
	C476.765656,557.443848 480.830048,560.881348 478.634094,566.160217 
	C476.447784,571.415833 471.195007,571.097656 466.526459,571.103210 
	C418.051758,571.160400 369.570557,570.716125 321.105164,571.401123 
	C299.385742,571.708130 284.322998,555.316589 288.269714,531.784851 
	C290.795868,516.723083 296.091949,502.564758 302.163635,488.243500 
M334.379669,513.120483 
	C325.575989,511.524414 317.828033,514.727722 314.701782,521.256165 
	C311.312744,528.333313 312.771545,537.886414 317.956299,542.568481 
	C323.085968,547.200867 331.606934,548.336853 338.057922,545.088562 
	C344.776093,541.705750 347.444916,536.094971 346.953583,528.686279 
	C346.418335,520.614624 343.089325,516.126648 334.379669,513.120483 
M336.339233,484.071716 
	C336.903442,487.937347 338.155914,491.480621 341.119781,494.212799 
	C346.851654,499.496674 356.441528,500.388733 362.884735,496.242859 
	C369.205078,492.176086 371.732666,483.818848 369.203674,475.349701 
	C367.111115,468.342041 361.175171,464.675476 352.441071,464.995667 
	C342.499725,465.360107 336.448120,472.200531 336.339233,484.071716 
M393.435211,515.995667 
	C384.341339,514.264771 376.222382,518.611572 374.425842,526.173096 
	C372.060394,536.129395 376.286621,545.105530 384.393188,547.343018 
	C393.688690,549.908630 402.332245,545.784180 405.120880,537.452454 
	C408.194885,528.268066 403.723969,519.545532 393.435211,515.995667 
z"/>
<path fill="#000000" opacity="1.000000" stroke="none" 
	d="
M465.021606,523.975464 
	C438.404694,496.621887 412.424988,469.125122 385.485199,442.603577 
	C373.061310,430.372559 375.198792,407.210999 391.453827,398.788116 
	C401.470245,393.597900 412.192810,390.646912 422.979187,387.844025 
	C437.650452,384.031586 452.446625,380.772247 467.714020,380.714600 
	C488.801208,380.635010 504.688049,395.142151 504.930176,416.236115 
	C505.396790,456.882477 505.011719,497.538727 504.943848,538.190796 
	C504.941101,539.844360 504.664612,541.514648 504.358429,543.147583 
	C502.836243,551.264954 495.245056,554.030762 489.041718,548.501465 
	C484.698303,544.630127 480.785889,540.272583 476.714294,536.099670 
	C472.875610,532.165588 469.080475,528.189026 465.021606,523.975464 
M443.224518,414.955872 
	C442.661896,416.685211 441.869568,418.376740 441.577362,420.150635 
	C440.457916,426.945923 441.482941,433.230743 447.431946,437.534882 
	C453.318726,441.793915 459.956207,442.009247 466.337952,439.001068 
	C472.718079,435.993622 475.069336,430.260254 474.924255,423.391205 
	C474.762177,415.715759 470.799316,410.055420 463.995789,407.826355 
	C456.471497,405.361145 448.656891,407.849274 443.224518,414.955872 
M478.078430,466.302795 
	C476.238678,465.563904 474.451477,464.628723 472.550140,464.119995 
	C464.116608,461.863525 455.116638,467.261200 453.353638,475.525116 
	C451.253754,485.368317 456.236328,494.331421 464.585541,495.729858 
	C475.827148,497.612793 483.835815,492.240509 484.907837,482.162537 
	C485.575775,475.883850 483.552429,470.743195 478.078430,466.302795 
M410.540741,429.938293 
	C410.021118,427.548676 409.521301,425.154480 408.975006,422.770996 
	C408.597809,421.125214 407.842041,419.928741 405.904633,420.910889 
	C404.187592,421.781311 404.098236,423.159088 405.150635,424.577576 
	C406.682953,426.643005 407.851501,429.050659 410.540741,429.938293 
z"/>
<path fill="#000000" opacity="1.000000" stroke="none" 
	d="
M570.458374,512.459473 
	C559.409363,523.821106 548.622253,534.945251 537.813171,546.047913 
	C534.436707,549.515991 530.744873,552.561462 525.527588,550.215637 
	C520.525146,547.966492 519.752502,543.440186 519.754944,538.486877 
	C519.775208,497.656616 519.648193,456.826202 519.726196,415.996155 
	C519.768311,393.958221 535.591919,378.505432 557.449158,380.108795 
	C581.479858,381.871582 604.784729,387.616119 627.136353,396.637207 
	C637.447083,400.798584 645.224915,407.942871 647.317932,419.624176 
	C648.706604,427.374359 646.537415,434.075104 641.027710,439.746185 
	C617.573608,463.887024 594.147888,488.055328 570.458374,512.459473 
M581.475281,414.223694 
	C576.990662,407.870667 570.675354,405.166321 563.891418,406.860931 
	C556.381348,408.737000 551.878113,413.216705 550.761475,421.225006 
	C549.417725,430.862427 555.356995,439.062225 564.817139,439.864960 
	C576.488892,440.855316 583.661438,434.857941 583.712585,424.097290 
	C583.727844,420.892792 583.160706,417.826752 581.475281,414.223694 
M552.423462,495.058594 
	C560.994812,496.313507 568.015320,492.778137 570.906799,485.750916 
	C573.699524,478.963257 571.537354,469.912842 565.926880,465.781616 
	C559.985352,461.406708 553.555176,461.058075 547.142456,464.546448 
	C540.441833,468.191437 538.405762,474.351929 539.323059,481.517853 
	C540.249573,488.755951 544.670959,493.079285 552.423462,495.058594 
z"/>
<path fill="#000000" opacity="1.000000" stroke="none" 
	d="
M476.299500,777.768555 
	C462.730347,779.308899 450.004913,776.389709 437.332245,773.774597 
	C424.965668,771.222778 412.651520,768.282532 400.677216,764.153076 
	C391.357574,760.939148 383.517334,755.897766 379.880615,746.189819 
	C375.603668,734.772827 377.780701,724.818420 386.501221,716.021851 
	C402.676270,699.705688 418.626984,683.166077 434.591370,666.642395 
	C452.174896,648.442871 469.663452,630.151672 487.212463,611.918762 
	C488.477844,610.604065 489.791595,609.289795 491.266632,608.231445 
	C496.110168,604.756226 501.109375,606.289978 503.390594,611.800842 
	C504.180084,613.708069 504.173828,615.688477 504.224518,617.688904 
	C505.270508,658.970703 505.121460,700.261841 505.155701,741.550903 
	C505.171967,761.166077 495.837769,772.899780 476.299500,777.768555 
M441.230804,730.142212 
	C441.142944,731.966736 440.917664,733.796875 440.990936,735.614868 
	C441.307739,743.474426 445.639374,749.100830 452.455139,750.651489 
	C461.070801,752.611633 469.137726,749.603455 472.855225,743.044312 
	C477.765472,734.380737 474.372711,722.490417 465.866425,718.551208 
	C455.945709,713.957092 445.315460,718.626343 441.230804,730.142212 
M457.102783,691.429138 
	C463.143799,696.381531 469.794983,696.907471 476.632111,693.591125 
	C482.631744,690.680969 485.155487,685.395874 484.909637,678.891907 
	C484.659241,672.267517 481.777802,667.088928 475.606018,664.157593 
	C469.006226,661.023010 460.415955,663.135010 455.805878,668.911011 
	C450.841278,675.131104 451.145691,683.925354 457.102783,691.429138 
M409.268036,726.740662 
	C407.191437,728.902771 405.375977,731.264526 404.380280,734.113525 
	C403.909424,735.460938 404.237976,736.802979 405.749786,737.404358 
	C406.800415,737.822266 408.028076,737.445251 408.224548,736.436890 
	C408.867859,733.134644 409.227234,729.777161 409.268036,726.740662 
z"/>
<path fill="#000000" opacity="1.000000" stroke="none" 
	d="
M617.244873,765.414551 
	C599.624939,770.672607 582.221924,775.174927 564.385803,777.692322 
	C551.203186,779.552917 538.709778,778.362854 529.033142,767.646606 
	C523.359558,761.363586 519.928894,753.940063 519.901611,745.510437 
	C519.763977,703.034302 519.876282,660.557251 519.905701,618.080566 
	C519.907349,615.736816 520.085083,613.405029 521.016968,611.218994 
	C523.168213,606.172546 528.415039,604.517334 532.982605,607.571350 
	C534.624451,608.669128 536.069397,610.110596 537.448181,611.545166 
	C566.182129,641.440918 594.888184,671.363647 623.615234,701.266052 
	C628.229248,706.068909 632.619080,711.143005 637.624268,715.504456 
	C656.631165,732.066589 646.254272,752.031189 631.133118,760.130859 
	C626.839050,762.430969 622.124634,763.569946 617.244873,765.414551 
M555.672241,722.196411 
	C551.754211,726.415833 550.780457,731.559570 551.357483,737.022766 
	C552.214111,745.132507 557.153381,749.856018 565.668762,751.069458 
	C573.304443,752.157532 580.921265,748.622131 583.392395,742.842896 
	C586.836609,734.787842 584.878418,725.397400 578.744751,720.555115 
	C572.479858,715.609070 563.590027,716.056213 555.672241,722.196411 
M560.740234,663.399292 
	C559.250000,663.286255 557.758301,663.059998 556.269836,663.079712 
	C549.663879,663.167419 543.846008,667.201965 541.572449,673.187317 
	C538.862366,680.321716 540.290039,687.294617 545.728943,691.833984 
	C551.263306,696.452942 557.615540,696.839844 564.002747,694.062988 
	C570.198059,691.369446 572.744934,685.927490 572.615234,679.519409 
	C572.462158,671.957458 569.456238,665.961548 560.740234,663.399292 
M617.698914,734.120117 
	C618.157898,735.593323 618.931824,736.571350 620.529053,735.467041 
	C621.799988,734.588196 621.963257,733.197754 621.267334,731.954407 
	C619.890015,729.493652 618.762207,726.800110 616.033569,724.706604 
	C616.594482,727.997803 617.058044,730.717957 617.698914,734.120117 
z"/>
</svg>