<svg version="1.1" id="Layer_1" xmlns="http://www.w3.org/2000/svg" xmlns:xlink="http://www.w3.org/1999/xlink" x="0px" y="0px"
	 width="100%" viewBox="0 0 960 1024" enable-background="new 0 0 960 1024" xml:space="preserve">
<path fill="#000000" opacity="1.000000" stroke="none" 
	d="
M492.600281,492.654205 
	C509.068054,483.873779 519.461792,470.562500 524.607666,453.176697 
	C525.614136,449.776337 527.198792,448.654419 530.539062,448.670990 
	C549.360291,448.764465 568.183716,448.586334 587.003174,448.792419 
	C596.010254,448.891083 602.439514,453.205688 605.760315,461.868042 
	C615.169373,486.411865 620.811462,511.773071 623.452209,537.932251 
	C626.808167,571.175537 625.223572,604.117859 618.178772,636.710266 
	C612.243225,664.170593 602.138794,689.984558 584.086731,711.971558 
	C563.028931,737.619385 536.409607,754.155518 503.374603,759.652222 
	C493.512360,761.293274 487.960388,756.669861 487.955872,746.653503 
	C487.918793,664.704102 487.945923,582.754700 487.904785,500.805359 
	C487.902985,497.225952 488.293365,494.114380 492.600281,492.654205 
z"/>
<path fill="#000000" opacity="1.000000" stroke="none" 
	d="
M351.735687,659.076477 
	C339.799744,622.551941 337.286713,585.451416 339.492157,547.717407 
	C341.167694,519.050110 347.207336,491.420868 356.752869,464.449829 
	C360.648376,453.443085 367.106110,448.781311 378.883057,448.750885 
	C396.705963,448.704773 414.530518,448.859253 432.351105,448.651031 
	C436.502625,448.602539 438.082214,450.227539 439.265564,453.998779 
	C444.576324,470.923950 454.623413,484.162903 470.729614,492.204895 
	C474.197540,493.936493 475.436127,496.084259 475.431091,499.957275 
	C475.323730,582.076355 475.349640,664.195618 475.331787,746.314880 
	C475.329376,757.401855 470.454254,761.539734 459.675659,759.510986 
	C412.152130,750.565918 380.187317,722.138000 359.826355,679.384399 
	C356.756073,672.937439 354.485992,666.109436 351.735687,659.076477 
z"/>
<path fill="#000000" opacity="1.000000" stroke="none" 
	d="
M518.000000,436.351135 
	C472.835205,436.326263 428.170319,436.264954 383.505707,436.340820 
	C379.572388,436.347504 377.470398,435.435974 377.863220,431.068573 
	C379.305115,415.036957 383.496033,399.972839 393.038818,386.720245 
	C401.769073,374.596100 413.635315,366.900482 427.780090,362.775635 
	C464.912048,351.947418 502.088715,351.581146 538.871704,364.062286 
	C565.032776,372.939209 579.117065,392.442108 584.173279,419.017120 
	C584.980652,423.260468 585.338379,427.587830 585.967102,431.867096 
	C586.486877,435.404877 585.003418,436.554138 581.494141,436.528534 
	C560.496826,436.375336 539.498230,436.391815 518.000000,436.351135 
z"/>
<path fill="#000000" opacity="1.000000" stroke="none" 
	d="
M527.353516,271.313629 
	C531.986023,268.021179 536.229797,264.782227 540.718384,261.928162 
	C546.098450,258.507294 550.966675,259.403900 553.722717,263.941895 
	C556.475952,268.475342 555.159607,272.415192 549.613403,275.939392 
	C537.383789,283.710480 526.562378,292.912231 519.191956,305.652100 
	C514.929626,313.019440 516.658020,317.173553 524.901001,319.389832 
	C536.742981,322.573761 543.349426,334.964996 539.750549,346.913910 
	C538.790894,350.100128 537.151001,350.662811 534.178040,349.750305 
	C514.352478,343.664978 493.973816,342.482269 473.404968,343.067566 
	C458.865143,343.481323 444.572235,345.553223 430.551086,349.432983 
	C425.592560,350.805023 424.435089,350.060272 423.724152,344.822937 
	C421.858521,331.078522 427.389679,322.712738 440.919891,318.814728 
	C445.837158,317.398071 448.015320,312.194397 445.653564,307.613678 
	C439.693970,296.054749 430.730194,287.299927 420.060760,280.135498 
	C417.572662,278.464752 414.970428,276.955566 412.549805,275.194611 
	C408.495667,272.245331 407.566895,267.741760 410.038422,263.816620 
	C412.500275,259.906891 417.097504,258.511383 421.392426,260.875916 
	C428.863098,264.988831 435.494141,270.334167 441.822968,276.003693 
	C448.943909,282.382782 454.990753,289.744720 459.431183,298.205658 
	C461.478912,302.107391 463.669586,302.761810 467.730408,301.636322 
	C477.536713,298.918304 487.513184,298.711212 497.271820,301.900452 
	C500.652252,303.005219 502.039978,301.711945 503.568756,299.102325 
	C509.761078,288.532196 517.224426,279.007721 527.353516,271.313629 
z"/>
<path fill="#000000" opacity="1.000000" stroke="none" 
	d="
M646.895569,763.093201 
	C636.112366,755.365112 633.921997,744.963257 634.406311,732.617004 
	C635.071289,715.661621 634.148621,698.646912 634.067810,681.656860 
	C634.050720,678.067688 633.354675,675.757751 629.135254,676.199158 
	C628.166504,676.300476 627.141724,676.074768 626.167236,675.878113 
	C620.121277,674.657532 619.519104,673.620544 621.515137,667.909668 
	C624.428528,659.574341 627.272766,651.216187 628.864746,642.503296 
	C629.480774,639.132080 631.037048,638.131714 633.979980,640.203430 
	C638.746887,643.559204 643.553223,646.865540 648.210144,650.369324 
	C653.059631,654.018127 655.241699,658.973633 655.226746,665.097107 
	C655.168945,688.757690 655.332947,712.419128 655.178711,736.078735 
	C655.149170,740.616638 656.544617,743.952148 659.769226,747.083740 
	C669.330444,756.369141 678.689087,765.863953 688.079651,775.323730 
	C691.420898,778.689514 692.741150,782.584412 690.513672,787.139832 
	C688.439270,791.382202 684.827087,793.108765 680.317505,792.954956 
	C676.741760,792.833008 674.171326,790.541565 671.798340,788.172485 
	C663.544556,779.932434 655.347839,771.635193 646.895569,763.093201 
z"/>
<path fill="#000000" opacity="1.000000" stroke="none" 
	d="
M290.410950,760.406128 
	C294.971375,755.769531 299.105225,751.174561 303.659576,747.043030 
	C307.434540,743.618469 308.811005,739.723694 308.778687,734.692017 
	C308.629944,711.548950 308.932312,688.401978 308.661987,665.261169 
	C308.574432,657.766724 311.446808,652.510681 317.473267,648.527100 
	C321.499725,645.865540 325.472382,643.117493 329.390656,640.299011 
	C332.100922,638.349426 334.064880,638.511780 334.794525,642.039368 
	C336.789185,651.682983 339.838623,661.004761 343.247223,670.215881 
	C344.151947,672.660767 343.405975,674.044556 341.039673,674.748352 
	C339.925323,675.079895 338.803253,675.401855 337.665802,675.636841 
	C329.300781,677.364746 329.293243,677.357483 329.286377,685.804749 
	C329.271393,704.286804 329.157288,722.769714 329.309967,741.250427 
	C329.362915,747.655151 327.346741,752.779480 322.715729,757.277405 
	C311.967499,767.716553 301.504913,778.449158 290.857361,788.992981 
	C286.442078,793.365234 282.151001,794.208984 277.819214,791.877014 
	C272.042603,788.767151 270.662476,781.369629 275.287506,776.126587 
	C280.017426,770.764526 285.188446,765.791565 290.410950,760.406128 
z"/>
<path fill="#000000" opacity="1.000000" stroke="none" 
	d="
M307.194458,303.692871 
	C311.749481,294.909698 318.740417,293.485962 325.469513,299.937561 
	C334.241058,308.347351 342.741119,317.039612 351.422333,325.544647 
	C355.339172,329.381989 355.980072,334.252838 356.140900,339.314911 
	C356.574280,352.954803 356.939728,366.596893 357.409271,380.235474 
	C357.649353,387.209778 357.725464,387.190094 364.687225,387.743073 
	C366.007050,387.847931 367.331299,388.065094 368.619507,388.372742 
	C375.764130,390.079315 376.123383,390.855927 373.459259,397.738983 
	C370.628448,405.052887 368.503448,412.571411 367.231293,420.317780 
	C366.989716,421.788635 366.918091,423.297363 364.992249,425.097992 
	C357.244629,419.838196 348.070038,416.467743 341.251221,409.557281 
	C336.853027,405.099945 337.288361,398.757477 337.010864,392.993500 
	C336.210846,376.377380 335.582184,359.751617 335.078278,343.123810 
	C334.973877,339.678467 333.770081,337.177338 331.350342,334.828522 
	C324.542023,328.219757 317.891785,321.448029 311.191925,314.727814 
	C308.261658,311.788666 306.083710,308.540619 307.194458,303.692871 
z"/>
<path fill="#000000" opacity="1.000000" stroke="none" 
	d="
M624.633728,313.633850 
	C629.613464,308.700134 634.197815,303.857605 639.107727,299.371307 
	C643.985413,294.914520 649.266724,294.799469 653.486755,298.563263 
	C658.109314,302.686066 658.362000,308.282318 653.778137,313.040466 
	C647.313110,319.751282 640.827332,326.466858 633.967224,332.762817 
	C629.911621,336.484894 628.504822,340.798553 628.312927,346.007385 
	C627.682251,363.127350 626.785583,380.238251 626.253052,397.360779 
	C626.001526,405.447205 622.807861,411.322357 615.511902,415.066315 
	C610.781189,417.493896 606.193115,420.226013 601.683777,423.049561 
	C598.517029,425.032440 596.547668,424.505554 596.214905,420.759308 
	C595.394104,411.520721 592.647766,402.850555 588.922607,394.442932 
	C587.887268,392.106262 588.617310,390.676544 590.809143,389.640961 
	C594.214355,388.032013 597.815002,387.495056 601.507996,387.759216 
	C604.758118,387.991730 605.893188,386.600037 606.003174,383.433990 
	C606.522705,368.475189 607.397278,353.526184 607.727417,338.564484 
	C607.862366,332.448242 609.836060,327.654755 614.373108,323.636932 
	C617.856873,320.551849 621.055542,317.144958 624.633728,313.633850 
z"/>
<path fill="#000000" opacity="1.000000" stroke="none" 
	d="
M327.207184,557.041748 
	C327.178833,560.697998 327.194824,563.864380 327.117737,567.028381 
	C326.980011,572.683411 325.729858,573.745422 320.150024,573.072205 
	C312.402679,572.137329 312.383942,572.132263 310.348541,579.651367 
	C307.609131,589.771362 304.854004,599.887573 302.204041,610.031067 
	C301.077454,614.343384 299.020966,617.947266 295.748108,621.046631 
	C286.678101,629.635986 277.801025,638.428711 268.773224,647.063232 
	C263.341736,652.258057 257.316620,652.449402 252.876877,647.763062 
	C248.516083,643.160095 248.900772,637.535095 254.153244,632.319275 
	C261.480865,625.042786 268.839996,617.793518 276.349701,610.706482 
	C280.236603,607.038208 282.655670,602.828735 284.020538,597.611572 
	C287.684479,583.606079 291.916168,569.749695 295.630646,555.756653 
	C297.497955,548.722168 301.649109,544.478516 308.675842,542.874207 
	C313.543518,541.762817 318.437164,540.727417 323.236786,539.367249 
	C327.338196,538.204956 328.362213,539.939880 328.064423,543.606567 
	C327.714478,547.916016 327.489014,552.235535 327.207184,557.041748 
z"/>
<path fill="#000000" opacity="1.000000" stroke="none" 
	d="
M646.124146,572.568115 
	C637.500000,573.818542 637.090088,573.400879 636.845520,565.449585 
	C636.615417,557.964478 636.197754,550.483643 635.759521,543.006958 
	C635.565063,539.688721 636.630615,538.335449 640.115662,539.288086 
	C645.410706,540.735413 650.778442,541.914795 656.084656,543.323669 
	C662.367371,544.991638 666.492493,548.784729 668.211792,555.276978 
	C672.130554,570.074890 676.337463,584.796570 680.240723,599.598450 
	C681.302673,603.625366 683.200256,606.834961 686.248108,609.675049 
	C694.168335,617.055603 701.945679,624.592346 709.670715,632.178162 
	C714.343689,636.766907 715.129333,640.955872 712.574646,645.618530 
	C709.397339,651.417603 702.157043,653.294067 697.280823,648.793152 
	C686.393066,638.743347 675.669922,628.482117 665.422913,617.786499 
	C660.830078,612.992615 660.780579,605.802490 658.983704,599.617004 
	C656.303528,590.390991 654.031372,581.046509 651.539490,571.577148 
	C649.421326,571.955688 647.972534,572.214600 646.124146,572.568115 
z"/>
<path fill="#000000" opacity="1.000000" stroke="none" 
	d="
M334.004822,501.546906 
	C333.322144,505.115570 331.450409,506.031494 328.475769,504.987640 
	C328.318939,504.932587 328.157501,504.888947 327.995911,504.849335 
	C304.683624,499.132111 307.021027,500.850677 298.252197,479.613983 
	C295.584503,473.153259 292.947906,466.676849 290.466644,460.143188 
	C289.302643,457.078125 287.400391,454.691406 285.062347,452.488861 
	C278.033051,445.866852 271.068970,439.175629 264.089539,432.500793 
	C263.127350,431.580627 262.170837,430.645264 261.299683,429.640656 
	C257.489410,425.246765 257.364685,419.486176 260.956696,415.573303 
	C264.766144,411.423492 270.342468,410.642487 274.810425,414.675446 
	C285.310913,424.153656 295.456146,434.028076 305.650391,443.840576 
	C307.589691,445.707214 308.279022,448.433716 309.260193,450.910553 
	C311.957123,457.718536 314.732635,464.496185 317.352539,471.333588 
	C318.381012,474.017670 319.729614,474.964264 322.632507,473.767365 
	C326.924866,471.997620 331.520508,472.996979 335.989166,472.881134 
	C339.537079,472.789154 340.695465,474.324066 339.760437,477.888458 
	C337.734467,485.611572 335.965363,493.402069 334.004822,501.546906 
z"/>
<path fill="#000000" opacity="1.000000" stroke="none" 
	d="
M684.297729,447.306152 
	C677.102051,452.508057 673.355957,459.534058 670.492310,467.376251 
	C667.411011,475.814392 663.591919,483.980194 660.261780,492.331451 
	C658.241455,497.398071 654.702332,500.540894 649.462341,501.769501 
	C644.600647,502.909424 639.704224,503.900818 634.833923,505.005249 
	C631.937134,505.662109 630.434814,504.521454 629.932251,501.638519 
	C628.500061,493.424194 626.386780,485.369873 623.846619,477.437225 
	C622.775330,474.091766 623.845764,472.706726 627.235596,472.799805 
	C631.880249,472.927338 636.609131,472.129089 641.129761,473.664764 
	C644.250427,474.724823 645.629150,473.442841 646.712402,470.658478 
	C649.670654,463.054901 652.847473,455.536530 655.904419,447.970978 
	C656.914734,445.470703 658.180115,443.170990 660.182251,441.304810 
	C669.442139,432.674103 678.620422,423.954681 687.955017,415.405823 
	C693.941711,409.922974 701.623718,411.648804 704.570923,418.974762 
	C706.354126,423.407196 704.954834,427.112244 701.710083,430.294647 
	C696.001587,435.893555 690.272827,441.471863 684.297729,447.306152 
z"/>
<path fill="#000000" opacity="1.000000" stroke="none" 
	d="
M509.256897,460.086243 
	C503.692993,470.121216 496.566925,477.985382 486.037842,482.300507 
	C483.275848,483.432434 480.596924,483.709900 477.836700,482.422607 
	C464.572357,476.236450 455.812378,466.120819 451.470398,452.168427 
	C451.239380,451.426117 451.294098,450.594910 451.233185,449.980072 
	C452.975555,448.255066 454.901123,448.755249 456.661530,448.749664 
	C473.301270,448.697052 489.941193,448.681854 506.581055,448.690216 
	C513.628174,448.693756 513.894226,449.109070 511.293640,455.673767 
	C510.743744,457.061768 510.045135,458.390839 509.256897,460.086243 
z"/>
</svg>