<svg version="1.1" id="Layer_1" xmlns="http://www.w3.org/2000/svg" xmlns:xlink="http://www.w3.org/1999/xlink" x="0px" y="0px"
	 width="100%" viewBox="0 0 960 1024" enable-background="new 0 0 960 1024" xml:space="preserve">
<path fill="#000000" opacity="1.000000" stroke="none" 
	d="
M512.346008,731.450684 
	C502.344055,735.754211 492.513977,739.448547 482.194427,741.531128 
	C477.617462,742.454834 475.961792,744.031067 476.760193,749.200928 
	C479.555511,767.301392 482.650330,785.335754 486.800598,803.169800 
	C487.775787,807.360291 486.467010,809.861328 483.016907,811.841248 
	C477.434204,815.044983 471.452728,815.887634 465.158997,815.070312 
	C461.382202,814.579834 459.967743,812.087158 459.330322,808.620178 
	C456.405853,792.714783 454.925323,776.615051 452.744324,760.610291 
	C452.092346,755.825806 451.037811,751.021057 451.090118,746.235657 
	C451.147766,740.958984 448.371155,738.862122 444.153961,736.750244 
	C379.129669,704.188782 343.072815,651.455688 335.891663,579.268005 
	C330.584229,525.915527 343.099701,476.115356 367.757477,428.968781 
	C397.530121,372.042389 438.942047,325.019531 489.336548,285.605347 
	C517.947632,263.228271 548.487000,244.057312 582.182495,230.204803 
	C591.565063,226.347549 592.348572,226.913712 592.154541,237.091797 
	C591.852905,252.906662 591.234619,268.700836 592.000488,284.538910 
	C593.272888,310.852905 596.207153,336.949951 600.622253,362.907593 
	C606.316406,396.385529 614.668762,429.329926 620.541687,462.770996 
	C626.260193,495.332733 629.851257,528.094727 627.944519,561.179443 
	C625.402039,605.295959 611.697876,645.419312 582.904541,679.554321 
	C563.679688,702.345703 539.883118,719.187988 512.346008,731.450684 
M474.854004,446.221832 
	C471.224365,459.587128 467.594757,472.952454 463.539856,487.883728 
	C451.395020,470.009705 440.143585,453.365112 425.185883,439.763519 
	C424.722260,442.172638 425.842560,443.801453 426.828033,445.486359 
	C438.017456,464.617798 448.606201,484.070129 458.284912,504.015869 
	C459.574402,506.673218 460.240479,509.138153 459.468079,512.129700 
	C458.598480,515.497620 458.295776,519.009705 457.703094,522.451660 
	C451.648438,557.613464 448.176270,593.042725 447.373657,628.697815 
	C446.631317,661.674744 446.960754,694.638000 450.166351,727.525757 
	C451.333160,739.496643 452.669159,741.176697 464.796722,741.831238 
	C465.960541,741.894104 467.131531,741.833191 468.293976,741.909607 
	C472.684448,742.198120 474.044647,740.465088 473.462921,735.927307 
	C469.905243,708.175720 467.672119,680.291931 467.033051,652.328491 
	C466.283142,619.517395 466.944427,586.721619 469.597504,553.974731 
	C470.011505,548.864807 471.366913,544.859924 474.698517,540.977478 
	C490.024689,523.117371 506.595245,506.508759 524.078979,490.782227 
	C527.859009,487.382111 531.518982,483.848480 535.234314,480.376343 
	C534.869690,479.921478 534.505005,479.466614 534.140381,479.011749 
	C512.060669,490.003448 493.569702,506.198456 474.259552,521.718811 
	C481.366791,460.242126 496.231873,400.998077 518.411743,343.504578 
	C499.052216,375.447174 485.794403,409.907806 474.854004,446.221832 
z"/>
</svg>