<svg version="1.1" id="Layer_1" xmlns="http://www.w3.org/2000/svg" xmlns:xlink="http://www.w3.org/1999/xlink" x="0px" y="0px"
	 width="100%" viewBox="0 0 1024 1024" enable-background="new 0 0 1024 1024" xml:space="preserve">
<path fill="#000000" opacity="1.000000" stroke="none" 
	d="
M561.622559,305.096252 
	C560.741150,303.869080 559.796326,303.043762 560.494629,300.798767 
	C581.818237,299.678040 593.751221,313.547394 604.435669,329.215790 
	C606.611877,327.583984 606.973633,325.543610 607.735840,323.752991 
	C612.853943,311.729980 619.180664,300.423401 627.621094,290.391174 
	C631.091980,286.265686 632.610962,286.429596 635.223633,291.240387 
	C641.384216,302.584045 645.837524,314.561737 648.234985,327.270508 
	C648.538696,328.880402 648.538818,330.581512 650.367981,332.265869 
	C664.423950,319.707886 680.088013,310.772034 700.332031,312.985413 
	C699.822083,316.267609 697.384705,317.348938 695.520325,318.743500 
	C686.180176,325.729889 678.347412,334.007538 673.085449,344.513641 
	C663.862732,362.928070 668.165833,377.896393 685.961792,388.266083 
	C699.916931,396.397705 714.496399,403.502319 727.248718,413.578308 
	C754.912354,435.436249 773.396118,463.045074 777.646423,498.514038 
	C782.573975,539.634521 777.617859,579.496460 756.397644,615.818909 
	C735.838074,651.010620 703.765991,670.597107 664.597900,679.209167 
	C638.770264,684.888123 612.546265,686.733887 586.164001,685.209717 
	C569.607178,684.253174 554.308594,678.440857 539.655640,671.052368 
	C509.269592,655.730957 483.009277,635.397217 463.790009,606.886536 
	C444.328156,578.015930 438.108215,545.992981 441.443359,511.681366 
	C443.410767,491.440613 448.810486,472.183960 456.659241,453.503082 
	C472.653473,415.435059 502.388153,393.554047 540.793640,381.861694 
	C547.478760,379.826447 554.285217,378.191772 560.981018,376.189606 
	C580.192627,370.444977 587.450012,357.114380 581.985046,337.748260 
	C578.395813,325.029053 570.665771,314.871399 561.622559,305.096252 
M473.358429,493.817200 
	C473.001465,498.428650 471.589478,502.984955 473.044830,507.681458 
	C473.725494,509.878113 474.528809,511.877899 476.876648,512.489807 
	C479.544098,513.184937 481.264252,511.502991 482.723907,509.553406 
	C485.889709,505.325073 487.330841,500.349457 488.757111,495.386444 
	C493.720276,478.116394 500.936646,461.951111 511.598236,447.369080 
	C519.033691,437.199524 528.552917,429.050598 537.244385,420.093750 
	C539.470825,417.799286 542.093689,415.614746 542.133362,411.923218 
	C538.629761,411.429565 538.635010,411.449738 536.040283,412.122864 
	C519.822632,416.329987 507.477570,426.153259 497.519867,439.170776 
	C485.279877,455.171875 477.473175,473.239716 473.358429,493.817200 
z"/>
<path fill="#000000" opacity="1.000000" stroke="none" 
	d="
M603.886047,733.229858 
	C581.597717,724.067810 560.603638,713.132141 540.519897,700.614563 
	C528.683777,693.237488 515.787048,690.777710 502.501190,688.065369 
	C488.436310,685.193970 478.910004,690.150635 468.879974,699.499390 
	C448.061768,718.903442 423.674927,732.258972 395.023132,736.708801 
	C371.874725,740.303955 350.014343,735.807434 328.801514,726.730713 
	C316.405792,721.426636 304.320953,715.413330 291.483307,711.118896 
	C279.198853,707.009521 266.728973,704.611755 253.741913,705.089111 
	C251.656403,705.165833 249.401779,705.764160 247.555603,704.209839 
	C246.702194,702.709229 247.511047,701.505005 248.232117,700.457581 
	C271.591431,666.526855 300.305054,638.980286 341.100342,627.802490 
	C387.420441,615.110840 429.393982,625.113708 466.555664,655.396606 
	C470.218994,658.381836 473.732178,661.669983 475.979858,667.521179 
	C430.973175,662.069885 387.019531,659.937012 343.646973,671.980042 
	C370.291229,669.858643 396.950226,669.054077 423.649139,670.745117 
	C450.291168,672.432678 476.843414,675.237244 503.956268,677.893860 
	C502.533417,674.692993 500.387054,673.331299 498.486572,671.838928 
	C466.675079,646.858948 441.129517,616.291565 418.900269,582.756836 
	C418.532074,582.201355 418.131073,581.662842 417.813019,581.079590 
	C414.452942,574.918396 410.280731,572.428833 402.457672,573.845398 
	C389.386749,576.212097 378.068817,570.364075 367.849945,562.561401 
	C361.390015,557.628845 354.409027,553.922852 346.254791,552.790283 
	C340.118164,551.937927 333.966553,552.147278 327.816772,552.649109 
	C325.897095,552.805725 323.869720,553.704224 321.689911,551.191589 
	C333.256714,538.601624 348.240265,534.711243 365.226379,534.130920 
	C361.243744,525.440063 357.805878,517.347900 356.340485,508.616760 
	C355.375122,502.864563 354.505219,497.112244 355.036133,491.240997 
	C355.360382,487.655212 357.005798,486.378662 360.688721,487.056244 
	C373.180115,489.354401 384.563080,494.232758 395.067108,501.275909 
	C396.440399,502.196747 397.645172,503.411011 399.559174,503.520905 
	C401.901855,501.989166 401.741821,499.204376 402.407043,496.931915 
	C405.177155,487.468262 409.843445,479.137482 416.645569,472.014984 
	C417.905060,470.696167 419.297516,469.481018 420.748383,468.375214 
	C422.050323,467.382935 423.582550,466.058929 425.238037,467.257263 
	C426.852234,468.425690 426.133453,470.281799 425.717041,471.881958 
	C422.911743,482.661621 422.200195,493.534241 424.269409,504.525146 
	C425.168396,509.300201 427.023102,513.770691 428.849365,518.235779 
	C434.605927,532.310059 434.867279,546.133545 426.772095,559.446838 
	C423.930298,564.120483 425.785248,568.049133 427.934540,572.091736 
	C433.831573,583.183655 441.380219,593.154297 449.196960,602.907532 
	C477.298523,637.971069 510.320282,667.433167 549.269470,690.032532 
	C568.950562,701.452148 589.873413,710.042908 611.606873,716.710388 
	C614.946533,717.734924 618.268188,718.838989 621.536133,720.070801 
	C625.811951,721.682556 628.128418,725.043701 629.060364,729.364380 
	C630.509705,736.083862 625.808960,740.732422 619.265198,738.799377 
	C614.167786,737.293701 609.244568,735.198242 603.886047,733.229858 
z"/>
<path fill="#000000" opacity="1.000000" stroke="none" 
	d="
M362.201111,384.474731 
	C377.257355,389.679565 382.565765,401.653320 385.321991,415.502380 
	C387.044342,424.156586 386.167725,432.742554 384.548676,441.289062 
	C381.617218,456.763519 382.383545,471.778320 389.758118,486.057495 
	C390.493744,487.481812 391.565582,488.904938 391.169861,490.799622 
	C389.139221,492.036713 387.721191,490.359039 386.238373,489.589142 
	C377.740601,485.177124 368.779938,482.126221 359.368195,480.500061 
	C351.748596,479.183563 349.781250,480.933990 349.264709,488.618713 
	C348.542206,499.367798 349.446320,509.889954 353.061615,520.123840 
	C353.635254,521.747681 354.769562,523.464478 353.726288,525.440308 
	C351.538391,526.291809 350.379150,524.462830 349.039490,523.462891 
	C337.428711,514.796387 324.533722,511.400269 310.048798,512.691040 
	C296.465637,513.901489 283.384979,511.507690 271.871277,503.709045 
	C259.880127,495.587097 254.258972,484.530243 257.404053,469.793060 
	C258.980103,462.407928 256.514801,455.964050 252.187973,450.129028 
	C244.704758,440.037415 248.341675,438.933685 258.402222,437.782776 
	C262.451080,437.319611 266.401062,436.438629 269.873138,434.556030 
	C280.131104,428.994232 289.862305,430.976593 299.391602,436.104492 
	C308.692566,441.109436 316.831390,447.739655 324.565002,454.890259 
	C328.579010,458.601654 332.180908,462.849396 337.716461,465.302399 
	C337.774445,463.182648 336.679535,461.732788 335.801971,460.286499 
	C329.479645,449.866913 321.436584,441.145294 310.875793,434.837341 
	C299.513580,428.050751 296.244171,418.300018 301.166412,405.669922 
	C303.939117,398.555359 308.268402,392.153870 310.203125,384.597351 
	C312.987549,373.722137 313.495850,373.463501 322.859039,379.294556 
	C331.121155,384.439911 339.956238,384.317627 348.955322,383.447754 
	C353.355621,383.022400 357.581696,383.283386 362.201111,384.474731 
z"/>
<path fill="#000000" opacity="1.000000" stroke="none" 
	d="
M407.304565,383.261902 
	C412.012329,382.119293 414.850861,379.120850 417.317139,375.681915 
	C419.283905,372.939423 421.616425,370.610901 424.503998,368.852081 
	C427.635620,366.944519 429.182861,367.965363 429.274384,371.491760 
	C429.339111,373.987396 429.403931,376.489838 429.296295,378.981812 
	C429.022308,385.325226 430.567902,391.198273 433.789795,396.617706 
	C447.910126,420.368988 436.765198,444.721771 422.273010,458.184082 
	C413.794250,466.060242 405.327972,473.669617 400.287567,484.325500 
	C399.875549,485.196533 399.324310,486.092621 397.524475,486.407440 
	C392.772766,479.494812 390.569702,471.518951 389.665314,463.072449 
	C388.492889,452.122772 391.789093,441.617188 393.102509,430.931335 
	C394.003693,423.599457 392.537415,416.680237 391.383057,409.677979 
	C389.243408,396.699310 394.298950,387.893799 407.304565,383.261902 
z"/>
<path fill="#000000" opacity="1.000000" stroke="none" 
	d="
M335.206787,522.588623 
	C338.942078,524.646729 342.885071,525.840149 345.330902,530.683899 
	C332.498383,533.093689 323.503937,542.172302 312.354370,547.246460 
	C306.238373,550.029907 299.744812,551.679382 293.083923,552.045227 
	C282.916473,552.603638 274.011108,549.391418 267.333099,541.405823 
	C262.567261,535.706848 257.337280,530.837524 250.295258,527.964172 
	C245.440430,525.983337 245.340439,523.613098 249.560486,520.542114 
	C253.335281,517.795044 257.393188,515.520203 261.666901,513.609314 
	C267.005585,511.222198 272.134949,511.123444 277.477386,513.868652 
	C288.007660,519.279602 299.189331,520.744873 310.924316,519.100952 
	C319.142700,517.949646 327.180511,519.150574 335.206787,522.588623 
z"/>
</svg>