<svg version="1.1" id="Layer_1" xmlns="http://www.w3.org/2000/svg" xmlns:xlink="http://www.w3.org/1999/xlink" x="0px" y="0px"
	 width="100%" viewBox="0 0 960 1024" enable-background="new 0 0 960 1024" xml:space="preserve">
<path fill="#000000" opacity="1.000000" stroke="none" 
	d="
M550.128784,717.228271 
	C550.353088,714.449829 550.674744,712.128845 550.714539,709.802979 
	C550.973816,694.645447 557.959839,681.999573 566.348572,670.198730 
	C570.506348,664.349670 573.652344,659.216431 573.274292,651.441711 
	C572.519714,635.922546 576.292419,620.775940 579.355225,605.619507 
	C583.462341,585.294739 586.317993,564.845520 581.084656,544.288757 
	C576.837036,527.604248 567.249817,514.105408 554.184204,503.260712 
	C540.472961,491.880127 524.515198,483.760529 509.667603,474.019775 
	C509.041046,473.608704 508.143127,473.611237 506.428436,473.188660 
	C506.532959,481.235596 503.953522,488.393158 502.185150,495.739197 
	C501.873627,497.033356 501.941223,498.573395 501.241577,499.593903 
	C497.303406,505.338104 500.828094,508.380859 504.905640,511.944885 
	C519.702454,524.878174 534.234985,538.060547 545.027954,554.817932 
	C559.340881,577.040466 562.261414,601.168518 556.013489,626.196899 
	C552.793579,639.095459 545.805176,650.695923 536.533936,660.593689 
	C534.833191,662.409424 532.798096,662.852722 530.660950,661.688599 
	C528.505249,660.514404 528.529846,658.425842 529.204773,656.413696 
	C532.805542,645.678711 534.988831,634.623596 536.914551,623.493591 
	C538.063293,616.854309 537.596985,610.333313 537.036133,603.648926 
	C535.309143,583.065857 522.575623,569.537048 508.187622,556.975891 
	C502.802216,552.274292 497.161591,547.847961 491.456543,543.535278 
	C487.469421,540.521301 486.304321,540.914490 485.119781,545.917542 
	C481.718018,560.285217 480.801178,574.658142 483.717926,589.381714 
	C486.988678,605.892456 492.859375,621.621887 496.966187,637.852966 
	C500.102814,650.249451 502.786255,662.811401 503.081238,675.687134 
	C503.194672,680.638062 505.420471,683.940857 509.160126,687.031189 
	C521.637329,697.341797 531.765076,709.524475 537.732727,724.821960 
	C542.990479,738.299561 542.799072,752.124878 540.834167,766.162231 
	C539.620239,774.834290 536.924438,782.914734 532.749817,790.572205 
	C531.581726,792.714783 530.090210,794.046875 527.588806,793.498779 
	C524.802795,792.888245 523.994141,790.728333 524.060730,788.196777 
	C524.104309,786.539917 524.404541,784.886719 524.637512,783.238525 
	C526.529419,769.855530 526.192444,756.527527 521.489502,743.805054 
	C517.594604,733.268372 512.264709,723.373230 502.179352,715.654175 
	C500.768463,721.958923 499.387390,727.481812 498.311066,733.063477 
	C495.258331,748.894653 490.610901,764.311340 486.558655,779.887695 
	C484.308197,788.538086 482.811005,797.519775 482.201233,806.436035 
	C480.494171,831.398560 482.165009,856.376221 482.744629,881.348755 
	C482.945435,889.998474 482.497040,898.665771 482.247650,907.322144 
	C482.168854,910.057495 481.632233,913.119263 478.545441,913.706543 
	C475.290894,914.325562 473.879852,911.281189 473.036163,908.868347 
	C469.623993,899.110168 467.505493,889.019287 465.685059,878.845276 
	C463.399231,866.070251 460.336975,853.418457 458.468750,840.588440 
	C456.257965,825.406311 456.564514,810.029419 456.583954,794.705872 
	C456.591278,788.954651 456.585175,783.203430 456.585175,776.535828 
	C447.971344,782.020142 442.103882,788.844910 437.399933,796.710999 
	C429.877472,809.290222 427.792603,823.408020 426.184814,837.635010 
	C426.035828,838.953491 425.932434,840.290283 425.624084,841.574402 
	C425.194092,843.364990 424.074066,844.501465 422.102844,844.503845 
	C420.427551,844.505859 419.382141,843.705139 418.651031,842.151855 
	C416.643555,837.886963 415.075897,833.455017 414.994629,828.752319 
	C414.853699,820.594116 414.135620,812.286438 415.348938,804.298035 
	C417.781525,788.282654 425.163330,774.475647 436.961945,763.162720 
	C443.111908,757.265808 449.698547,751.941040 457.195465,747.876404 
	C461.999023,745.272095 462.978424,740.718811 463.543091,736.090942 
	C465.558533,719.573181 467.792572,703.077332 465.985657,686.332642 
	C464.782806,675.185242 462.361786,664.388000 458.450623,653.910583 
	C458.007080,652.722290 457.778809,651.266663 455.808319,650.429688 
	C449.163879,654.700012 443.487579,660.505432 438.373840,666.773682 
	C424.233124,684.106995 416.319611,703.747131 417.193512,726.459900 
	C417.257538,728.124023 417.203613,729.792725 417.199066,731.459290 
	C417.192108,733.995789 417.372162,736.759705 414.045593,737.384644 
	C410.706177,738.012024 408.476013,736.159119 407.546570,733.201294 
	C405.803650,727.654724 404.361023,722.048767 403.520416,716.232971 
	C399.105011,685.684753 410.089661,660.484009 430.194672,638.436646 
	C433.995636,634.268433 438.270691,630.504578 442.546906,626.808533 
	C445.012115,624.677856 445.857361,622.679443 444.567780,619.488525 
	C436.485901,599.490845 434.928101,578.565613 435.758514,557.264587 
	C436.280579,543.873718 439.672028,531.225464 443.449921,518.428650 
	C448.814362,500.257751 456.744720,482.567841 456.270416,462.998810 
	C456.210724,460.536133 456.637573,458.059479 455.149353,455.887970 
	C453.061737,455.549194 451.927734,456.828094 450.797791,458.035431 
	C441.749329,467.703949 431.009277,475.320221 420.266724,482.884186 
	C415.556885,486.200439 417.822693,490.232025 418.804321,493.673920 
	C428.296448,526.954102 419.092865,557.842834 394.602570,578.077454 
	C391.623688,580.538696 388.036011,584.463013 384.140472,581.344116 
	C380.392639,578.343506 383.972961,574.714478 385.771332,571.656555 
	C389.642426,565.074097 393.132446,558.318054 395.566467,551.053650 
	C400.596588,536.041260 399.654510,520.925659 396.360870,505.770813 
	C395.441559,501.540771 393.412323,501.738037 390.402802,504.064758 
	C376.014252,515.189026 366.929718,529.823669 362.700623,547.281799 
	C361.317993,552.989563 362.134399,559.222168 361.877106,565.211792 
	C361.105713,583.168701 364.937195,600.471680 368.609070,617.899292 
	C370.898224,628.764221 371.073792,640.067627 370.965424,651.220398 
	C370.915283,656.383057 372.501587,660.282227 375.681396,664.330200 
	C392.315186,685.505066 399.898590,709.199341 394.376068,736.196045 
	C393.846252,738.785950 392.884186,741.288940 392.097198,743.824341 
	C391.298004,746.398987 390.004730,748.602417 386.861633,748.041382 
	C383.893219,747.511597 382.996063,745.029724 382.828003,742.425232 
	C382.388550,735.613770 382.318878,728.773865 381.726044,721.978027 
	C380.546661,708.456909 374.448853,697.071411 365.768860,685.744812 
	C363.096252,692.014221 360.321014,697.242188 358.616577,702.798645 
	C355.401031,713.281494 350.207184,722.975830 347.436432,733.676331 
	C343.515320,748.819458 343.640533,763.982178 345.048035,779.282898 
	C345.535065,784.577148 346.556854,789.820679 347.260345,795.097229 
	C347.554535,797.303650 348.757843,800.058105 345.550415,801.043823 
	C342.570038,801.959717 339.759949,800.977783 338.278107,798.155884 
	C335.656708,793.163818 332.898529,788.166443 331.008850,782.881226 
	C324.471954,764.598755 323.311859,745.703308 327.117126,726.804016 
	C329.199097,716.463440 333.620453,706.615540 336.233856,696.353760 
	C338.480621,687.531555 341.789734,678.862732 341.834137,669.573608 
	C341.877899,660.409119 341.756317,651.243958 341.783081,642.079346 
	C341.802368,635.471741 338.888611,629.503296 337.718109,623.137756 
	C336.522369,616.635254 334.167969,610.340454 332.739990,603.828674 
	C331.711914,599.140503 330.260803,598.841003 326.851440,601.917908 
	C313.920593,613.587341 306.807556,628.247131 304.823029,645.402588 
	C303.694031,655.161926 302.927979,664.969727 303.209656,674.821289 
	C303.247742,676.152527 303.267517,677.494324 303.148041,678.817932 
	C302.908142,681.475769 301.362640,683.179016 298.787720,683.558411 
	C296.386414,683.912292 295.436981,682.075500 294.439178,680.200806 
	C290.633636,673.050781 289.056122,665.184387 287.417877,657.427307 
	C285.093048,646.419617 284.729980,635.085388 287.323975,624.179138 
	C290.339417,611.501038 295.905396,599.751648 304.123688,589.394165 
	C309.337769,582.822876 315.076324,576.804749 322.055084,572.165833 
	C325.130829,570.121399 326.040009,567.766907 325.848785,564.258850 
	C324.763306,544.346680 329.303436,525.498230 338.315948,507.942749 
	C346.322784,492.346222 358.493591,479.988220 371.949402,468.861328 
	C385.293427,457.826813 400.069763,448.616730 412.652466,436.611084 
	C421.595459,428.078217 428.443542,418.264496 432.104370,406.378601 
	C432.674133,404.528809 434.870728,403.348694 434.121582,400.342957 
	C428.606873,401.627411 424.179443,405.330322 418.941010,407.000031 
	C412.482483,409.058594 406.437225,412.427124 399.584503,413.231323 
	C395.704956,413.686584 392.493347,415.913483 388.828522,417.029755 
	C370.413025,422.639038 352.019226,428.445007 335.999298,439.693481 
	C335.318054,440.171814 334.595154,440.593201 333.931458,441.093872 
	C324.385162,448.295441 324.781128,448.216034 327.156708,459.695007 
	C328.732300,467.308380 331.200989,474.762909 331.283691,482.728821 
	C331.397797,493.720947 328.938446,503.956635 324.970154,514.173096 
	C320.634735,525.334900 313.764893,534.358337 305.225647,542.444275 
	C302.732361,544.805237 300.153015,546.203247 297.335907,543.935486 
	C294.238190,541.441833 295.691498,538.556458 297.881195,536.140747 
	C300.118835,533.672180 300.451080,530.367310 301.562622,527.488037 
	C307.017151,513.359375 311.850159,499.028351 308.242706,483.483246 
	C307.181152,478.908661 307.677643,473.988708 305.782867,469.643158 
	C303.029083,469.756287 302.184631,471.409332 301.121674,472.903839 
	C295.637207,480.614868 290.145935,488.229309 286.143738,496.959930 
	C281.638092,506.788849 277.703094,516.728394 275.426971,527.277161 
	C271.750122,544.317566 271.789429,561.696106 271.437164,578.983154 
	C271.156769,592.742981 269.609772,606.348816 266.039673,619.489319 
	C259.169830,644.775330 245.133316,665.595642 223.987564,681.360962 
	C222.133820,682.743042 219.999786,683.777710 217.917618,684.816833 
	C215.904755,685.821289 213.776962,686.397034 211.966446,684.381714 
	C210.201462,682.417175 210.764801,680.419067 212.007050,678.424988 
	C214.821732,673.906555 217.551117,669.333984 220.419937,664.850464 
	C229.114563,651.262024 236.841660,637.188538 241.599564,621.691101 
	C243.418289,615.767090 243.336960,609.502991 243.784622,603.383118 
	C244.685852,591.062256 243.574829,578.752380 243.070312,566.433716 
	C242.574402,554.325439 242.523651,542.184814 244.235703,530.271423 
	C241.817719,528.962708 240.091949,530.077271 238.643005,530.884644 
	C223.169846,539.507324 211.103989,551.270325 203.064209,567.394714 
	C198.505508,576.537598 196.391861,586.422852 192.400558,595.675476 
	C191.551956,597.642639 190.981445,600.187317 188.096527,599.567749 
	C185.655396,599.043579 184.857361,596.901123 184.762589,594.571960 
	C184.004608,575.945435 187.241760,558.487732 197.110153,542.121399 
	C206.146790,527.134521 217.970474,515.504761 232.879395,506.774750 
	C236.440430,504.689575 240.162216,502.487366 244.099075,501.539886 
	C248.506042,500.479340 250.856979,497.843750 251.922974,494.085663 
	C255.584473,481.177490 262.033630,469.655640 269.103729,458.429443 
	C277.221100,445.540253 287.390717,434.334747 298.080719,423.570251 
	C299.677948,421.961853 301.741119,420.669983 302.279449,417.571594 
	C294.063690,415.786255 285.954681,415.306244 277.650024,416.391693 
	C263.560638,418.233185 255.339798,427.950775 247.632156,438.352631 
	C240.672668,447.744843 233.685471,457.193573 223.804352,463.684753 
	C209.648727,472.983917 194.346283,476.362335 177.755951,470.798584 
	C175.406357,470.010651 174.068619,468.622040 173.931641,466.167694 
	C173.785751,463.553894 175.699356,462.770752 177.700089,462.271301 
	C182.220383,461.142883 186.718430,459.777649 191.313019,459.122192 
	C205.339508,457.121124 214.396591,448.290894 222.271698,437.514771 
	C230.200134,426.665588 236.750671,414.760437 246.545609,405.330841 
	C254.242935,397.920563 263.646820,394.021973 273.707703,390.499512 
	C289.793518,384.867645 304.959381,390.130676 320.483856,391.947235 
	C320.972748,392.004456 321.534149,392.089813 321.910309,392.367340 
	C329.363373,397.865906 335.729340,394.028473 341.872009,389.861633 
	C348.632660,385.275513 356.289520,382.629456 363.622040,379.288422 
	C380.877502,371.425934 399.716553,367.025238 414.940094,354.726349 
	C426.427582,345.445679 432.644592,333.849854 432.877136,319.136536 
	C433.111481,304.310699 433.008392,289.478729 433.325592,274.655304 
	C433.490479,266.947479 436.911346,263.830780 444.577972,263.800873 
	C463.409760,263.727386 482.242126,263.689728 501.073883,263.748505 
	C509.831604,263.775848 511.994324,265.946381 511.941071,274.818481 
	C511.858093,288.641479 511.143860,302.472015 511.441010,316.283325 
	C511.869385,336.192291 520.820435,351.151367 538.787842,360.442230 
	C547.320007,364.854187 556.351196,368.013275 565.160095,371.732086 
	C580.818359,378.342468 597.029175,383.906433 611.223267,393.649750 
	C614.674866,396.019073 617.988342,394.469635 621.632202,393.479889 
	C638.415771,388.921539 654.929199,384.681030 672.909058,389.424835 
	C696.314392,395.600067 708.901245,412.648010 720.179993,431.634857 
	C728.300537,445.305145 738.436218,456.290894 754.872986,459.317993 
	C759.287598,460.131012 763.765198,460.572662 768.080383,461.905853 
	C770.238220,462.572540 772.173645,463.318909 772.263306,466.109680 
	C772.359741,469.114532 770.418030,470.037384 768.036621,470.812195 
	C747.523376,477.486298 730.504150,470.461182 715.297180,457.094788 
	C708.266724,450.915314 703.117737,443.050934 697.541809,435.577942 
	C683.145874,416.284424 669.192444,413.022339 644.338867,418.178650 
	C648.264771,422.502472 651.801453,426.535950 655.484863,430.430664 
	C671.930603,447.819824 684.356628,467.708710 692.617615,490.166199 
	C694.663574,495.728180 697.226562,499.273987 703.648499,501.938629 
	C724.764648,510.700287 741.259583,525.290100 752.104919,545.942810 
	C759.863708,560.717896 761.756226,576.536987 762.107056,592.786743 
	C762.169128,595.660767 761.714539,598.355530 758.264587,598.773254 
	C754.904053,599.180115 754.330200,596.433472 753.571045,594.004578 
	C750.449463,584.017334 747.724060,573.892395 742.607788,564.635010 
	C734.132141,549.299133 721.883789,537.996826 706.256836,530.247681 
	C705.665771,529.954590 705.016235,529.728271 704.368835,529.617859 
	C703.911743,529.539917 703.412231,529.710876 702.735229,529.795227 
	C701.417175,533.613037 703.148621,537.330750 703.128235,541.081238 
	C703.013428,562.243652 703.470947,583.416016 702.976074,604.567200 
	C702.632202,619.262390 707.556885,632.270081 713.634521,645.083130 
	C719.143188,656.696655 726.400513,667.281921 733.549866,677.916809 
	C734.954102,680.005737 736.862183,682.145874 734.416016,684.539490 
	C732.107056,686.798950 729.645630,685.973450 727.155457,684.388550 
	C707.170288,671.668823 692.704712,654.351685 683.754150,632.437378 
	C677.641785,617.471924 674.449890,601.891235 674.896973,585.720032 
	C675.391602,567.828430 673.234802,550.064453 671.232117,532.434143 
	C668.918945,512.069458 660.508423,493.467316 647.865723,477.067688 
	C645.987976,474.631927 644.923767,471.413818 641.845520,470.131653 
	C640.145264,470.487640 640.287659,471.830719 640.063599,472.915741 
	C637.313904,486.230408 635.788086,499.696014 639.678345,512.921265 
	C642.036499,520.938354 644.760620,529.009949 649.335754,536.189880 
	C651.045105,538.872498 652.639221,541.871948 649.710999,544.196533 
	C646.784973,546.519226 644.108459,544.835388 641.436401,542.395020 
	C632.291321,534.042725 625.363098,524.000305 620.728577,512.787170 
	C613.943726,496.371490 613.478027,479.290558 618.647034,462.137360 
	C619.792236,458.336975 620.325012,454.349396 621.093140,450.438873 
	C621.527771,448.225861 619.814331,446.966278 618.490112,445.909576 
	C606.471191,436.318909 593.234009,428.785919 578.682861,423.831757 
	C563.045532,418.507782 547.153076,413.925873 531.562866,408.474365 
	C524.455627,405.989166 517.625916,402.577942 510.241028,399.183990 
	C512.080322,404.041473 513.597229,409.051971 515.817444,413.728638 
	C523.424133,429.751587 536.258972,441.043457 550.534485,450.827393 
	C568.357727,463.042908 584.729980,476.827942 597.870728,494.087738 
	C605.590210,504.226990 610.181396,515.878052 614.468689,527.893127 
	C618.690613,539.725037 618.489563,551.696533 619.175781,563.735107 
	C619.354309,566.868530 620.396118,569.063538 622.863281,570.906494 
	C636.309998,580.950684 646.953308,593.421509 653.523804,608.886841 
	C660.456970,625.205872 662.664429,642.120605 657.971619,659.635864 
	C656.206421,666.224487 654.577454,672.809692 651.825684,679.079712 
	C650.649780,681.758972 649.215271,683.789612 645.903137,683.187256 
	C642.503113,682.568848 642.012817,680.008728 641.993469,677.156067 
	C641.938049,668.990967 642.216980,660.805664 641.739685,652.664917 
	C640.610229,633.404724 634.180664,616.350403 619.763977,602.897278 
	C618.791687,601.989990 617.750183,601.147522 616.677979,600.360657 
	C616.170410,599.988098 615.514221,599.818115 614.616150,599.418884 
	C611.968994,603.360168 612.306213,608.045166 610.958313,612.180237 
	C604.120972,633.155945 601.133850,654.724731 604.591980,676.656128 
	C606.425476,688.283875 610.422119,699.505981 614.212585,710.670898 
	C622.377136,734.719543 624.312866,758.673218 614.659851,782.860229 
	C613.004211,787.008423 611.452881,791.190430 609.617615,795.273621 
	C608.775696,797.146606 607.701355,798.802734 606.316650,800.214783 
	C604.830933,801.729980 602.906189,802.288147 600.814697,801.470276 
	C598.523682,800.574280 598.162170,798.662842 598.439331,796.529114 
	C599.061340,791.741577 599.544617,786.926086 600.416138,782.182922 
	C602.730042,769.589478 602.694946,756.936707 600.637085,744.405518 
	C598.664734,732.394287 594.095520,721.091187 589.418457,709.878601 
	C586.313538,702.434937 583.391174,694.915222 580.117676,686.758057 
	C574.078247,691.529846 571.978027,697.862732 569.128540,703.716614 
	C563.370544,715.545654 564.839050,728.472534 563.385864,740.954956 
	C563.193359,742.608032 563.200745,744.288452 562.318237,745.787903 
	C561.421692,747.311218 560.169495,748.390381 558.378296,748.528564 
	C556.262939,748.691833 555.688171,746.984009 554.937500,745.475098 
	C550.565735,736.687195 550.539062,727.150696 550.128784,717.228271 
z"/>
</svg>